<?xml version="1.0" standalone="no"?>
<!DOCTYPE svg PUBLIC "-//W3C//DTD SVG 20010904//EN"
 "http://www.w3.org/TR/2001/REC-SVG-20010904/DTD/svg10.dtd">
<svg version="1.0" xmlns="http://www.w3.org/2000/svg"
 width="91.000000pt" height="79.000000pt" viewBox="0 0 91.000000 79.000000"
 preserveAspectRatio="xMidYMid meet">

<g transform="translate(0.000000,79.000000) scale(0.100000,-0.100000)"
fill="#000000" stroke="none">
<path d="M340 746 c0 -2 -45 -151 -100 -331 -55 -181 -100 -332 -100 -336 0
-5 99 -9 220 -9 121 0 220 2 220 4 0 2 45 151 100 331 55 181 100 332 100 336
0 5 -99 9 -220 9 -121 0 -220 -2 -220 -4z m138 -188 c-33 -11 -37 -31 -41
-178 l-2 -105 31 -3 c46 -4 82 14 105 53 12 19 24 35 28 35 4 0 3 -25 -2 -55
l-10 -55 -151 1 c-110 0 -144 3 -124 10 28 11 25 -7 44 217 5 64 4 69 -18 79
-19 10 -5 12 72 12 75 -1 89 -3 68 -11z"/>
</g>
</svg>
